<svg width="197" height="317" viewBox="0 0 197 317" fill="none" xmlns="http://www.w3.org/2000/svg">
<path d="M0.214722 2.98322L197 10.8454V316.347H176.164V60.8264H0.214722V2.98322Z" fill="#B7613B"/>
<path d="M39.1005 41.5213C36.6925 41.5213 34.5505 41.0173 32.6745 40.0093C30.8265 39.0013 29.3565 37.6293 28.2645 35.8933C27.2005 34.1293 26.6685 32.1273 26.6685 29.8873C26.6685 27.6193 27.2005 25.6173 28.2645 23.8813C29.3565 22.1173 30.8265 20.7453 32.6745 19.7653C34.5505 18.7573 36.6925 18.2533 39.1005 18.2533C41.4805 18.2533 43.6085 18.7573 45.4845 19.7653C47.3605 20.7453 48.8305 22.1033 49.8945 23.8393C50.9585 25.5753 51.4905 27.5913 51.4905 29.8873C51.4905 32.1273 50.9585 34.1293 49.8945 35.8933C48.8305 37.6293 47.3605 39.0013 45.4845 40.0093C43.6085 41.0173 41.4805 41.5213 39.1005 41.5213ZM39.1005 36.1453C40.1925 36.1453 41.1725 35.8933 42.0405 35.3893C42.9085 34.8853 43.5945 34.1713 44.0985 33.2473C44.6025 32.2953 44.8545 31.1753 44.8545 29.8873C44.8545 28.5713 44.6025 27.4513 44.0985 26.5273C43.5945 25.6033 42.9085 24.8893 42.0405 24.3853C41.1725 23.8813 40.1925 23.6293 39.1005 23.6293C38.0085 23.6293 37.0285 23.8813 36.1605 24.3853C35.2925 24.8893 34.5925 25.6033 34.0605 26.5273C33.5565 27.4513 33.3045 28.5713 33.3045 29.8873C33.3045 31.1753 33.5565 32.2953 34.0605 33.2473C34.5925 34.1713 35.2925 34.8853 36.1605 35.3893C37.0285 35.8933 38.0085 36.1453 39.1005 36.1453ZM67.8915 41.1853V18.5893H74.4015V27.4093H84.2295V18.5893H90.7815V41.1853H84.2295V32.7433H74.4015V41.1853H67.8915ZM110.578 41.1853V36.7753L110.158 35.8093V27.9133C110.158 26.5133 109.724 25.4213 108.856 24.6373C108.016 23.8533 106.714 23.4613 104.95 23.4613C103.746 23.4613 102.556 23.6573 101.38 24.0493C100.232 24.4133 99.2516 24.9173 98.4396 25.5613L96.0876 20.9833C97.3196 20.1153 98.8036 19.4433 100.54 18.9673C102.276 18.4913 104.04 18.2533 105.832 18.2533C109.276 18.2533 111.95 19.0653 113.854 20.6893C115.758 22.3133 116.71 24.8473 116.71 28.2913V41.1853H110.578ZM103.69 41.5213C101.926 41.5213 100.414 41.2273 99.1536 40.6393C97.8936 40.0233 96.9276 39.1973 96.2556 38.1613C95.5836 37.1253 95.2476 35.9633 95.2476 34.6753C95.2476 33.3313 95.5696 32.1553 96.2136 31.1473C96.8856 30.1393 97.9356 29.3553 99.3636 28.7953C100.792 28.2073 102.654 27.9133 104.95 27.9133H110.956V31.7353H105.664C104.124 31.7353 103.06 31.9873 102.472 32.4913C101.912 32.9953 101.632 33.6253 101.632 34.3813C101.632 35.2213 101.954 35.8933 102.598 36.3973C103.27 36.8733 104.18 37.1113 105.328 37.1113C106.42 37.1113 107.4 36.8593 108.268 36.3553C109.136 35.8233 109.766 35.0533 110.158 34.0453L111.166 37.0693C110.69 38.5253 109.822 39.6313 108.562 40.3873C107.302 41.1433 105.678 41.5213 103.69 41.5213ZM133.153 41.5213C130.717 41.5213 128.547 41.0313 126.643 40.0513C124.739 39.0433 123.241 37.6573 122.149 35.8933C121.085 34.1293 120.553 32.1273 120.553 29.8873C120.553 27.6193 121.085 25.6173 122.149 23.8813C123.241 22.1173 124.739 20.7453 126.643 19.7653C128.547 18.7573 130.717 18.2533 133.153 18.2533C135.533 18.2533 137.605 18.7573 139.369 19.7653C141.133 20.7453 142.435 22.1593 143.275 24.0073L138.193 26.7373C137.605 25.6733 136.863 24.8893 135.967 24.3853C135.099 23.8813 134.147 23.6293 133.111 23.6293C131.991 23.6293 130.983 23.8813 130.087 24.3853C129.191 24.8893 128.477 25.6033 127.945 26.5273C127.441 27.4513 127.189 28.5713 127.189 29.8873C127.189 31.2033 127.441 32.3233 127.945 33.2473C128.477 34.1713 129.191 34.8853 130.087 35.3893C130.983 35.8933 131.991 36.1453 133.111 36.1453C134.147 36.1453 135.099 35.9073 135.967 35.4313C136.863 34.9273 137.605 34.1293 138.193 33.0373L143.275 35.8093C142.435 37.6293 141.133 39.0433 139.369 40.0513C137.605 41.0313 135.533 41.5213 133.153 41.5213Z" fill="white"/>
</svg>
