<?xml version="1.0" encoding="UTF-8" standalone="no"?>
<svg
   version="1.1"
   width="128.38126"
   height="25.8183"
   id="svg41"
   xmlns="http://www.w3.org/2000/svg"
   xmlns:svg="http://www.w3.org/2000/svg">
  <defs
     id="defs45" />
  <g
     id="Layer1001"
     transform="translate(-284.69554,-368.0138)">
    <path
       d="m 394.0903,378.9473 18.9865,-0.5726 -34.0019,15.4574 8.7205,-9.6381 -101.2671,-1.0571 -0.009,-0.9445 107.5102,-3.2431 h -3.0875 v -4.9192 l -0.0542,0.5048 c -0.0677,0.6327 -0.1477,1.4111 -0.3322,2.0203 -0.146,0.4819 -0.4433,0.8606 -0.896,1.0851 -0.5071,0.2514 -1.241,0.2886 -1.7983,0.2886 h -1.8131 v -1.0268 c -0.1182,0.3416 -0.335,0.6225 -0.6378,0.8297 -0.3404,0.2331 -0.7333,0.3303 -1.1429,0.3303 -0.3172,0 -0.6219,-0.0686 -0.9045,-0.2084 v 1.0956 h -3.1487 v -2.4103 c -0.089,0.1831 -0.2013,0.3561 -0.3223,0.5165 -0.2569,0.3396 -0.5871,0.5958 -0.9783,0.7639 -0.4297,0.1846 -0.9147,0.2427 -1.379,0.2427 -0.4743,0 -0.9511,-0.0644 -1.3961,-0.2327 -0.3906,-0.148 -0.7509,-0.3671 -1.0233,-0.688 -0.1117,-0.1313 -0.2083,-0.2713 -0.2897,-0.4195 0.0198,0.1649 0.0604,0.3327 0.1392,0.4456 l 0.5292,0.7577 h -3.2749 l -0.1445,-0.1953 c -0.0261,-0.0355 -0.0508,-0.0718 -0.0734,-0.1083 v 0.3036 h -3.1267 v -1.4372 c -0.0949,0.2254 -0.2239,0.4348 -0.3804,0.6282 -0.2727,0.337 -0.6216,0.5774 -1.027,0.7287 -0.4209,0.1571 -0.8708,0.2172 -1.3184,0.2172 -0.4575,0 -0.9368,-0.0428 -1.3745,-0.1814 -0.3835,-0.1216 -0.7361,-0.3198 -1.0015,-0.6271 -0.1763,-0.2043 -0.3103,-0.4345 -0.4064,-0.6825 -0.0148,0.0805 -0.0324,0.1581 -0.053,0.2315 -0.1089,0.3867 -0.3374,0.7022 -0.669,0.9292 -0.3405,0.2331 -0.7333,0.3303 -1.143,0.3303 -0.3172,0 -0.6219,-0.0686 -0.9045,-0.2084 v 1.0956 h -3.1487 v -2.101 c -0.0295,0.0697 -0.0624,0.1363 -0.0998,0.1993 -0.2438,0.4107 -0.6211,0.6644 -1.0871,0.7619 -0.5403,0.1131 -1.1965,0.1194 -1.7475,0.1194 h -3.1201 v -0.9959 c -0.1205,0.3277 -0.3331,0.5979 -0.6268,0.7988 -0.3404,0.2331 -0.7333,0.3303 -1.1429,0.3303 -0.3172,0 -0.6219,-0.0686 -0.9045,-0.2084 v 1.0956 h -3.1488 v -2.4103 c -0.089,0.1831 -0.2012,0.3561 -0.3223,0.5165 -0.2568,0.3396 -0.587,0.5958 -0.9782,0.7639 -0.4297,0.1846 -0.9147,0.2427 -1.3791,0.2427 -0.4742,0 -0.951,-0.0644 -1.396,-0.2327 -0.3906,-0.148 -0.7509,-0.3671 -1.0233,-0.688 -0.1684,-0.1982 -0.303,-0.4156 -0.4017,-0.6514 -0.0428,0.1967 -0.104,0.3838 -0.191,0.5457 -0.2237,0.4164 -0.5871,0.6783 -1.0483,0.7769 -0.5233,0.1123 -1.175,0.1163 -1.7093,0.1163 h -5.6636 v -0.1528 l -0.0281,0.1528 h -1.9984 l -0.0598,-0.3155 v 0.3155 h -2.8383 v -1.3899 c -0.0891,0.1831 -0.2013,0.3561 -0.3223,0.5165 -0.2569,0.3396 -0.5871,0.5958 -0.9783,0.7639 -0.4297,0.1846 -0.9147,0.2427 -1.379,0.2427 -0.4743,0 -0.9511,-0.0644 -1.3961,-0.2327 -0.3906,-0.148 -0.7509,-0.3671 -1.0233,-0.688 -0.1658,-0.195 -0.2991,-0.4093 -0.3971,-0.6409 -0.0173,0.1057 -0.0386,0.2075 -0.0652,0.3021 -0.1089,0.3867 -0.3374,0.7022 -0.669,0.9292 -0.3405,0.2331 -0.7333,0.3303 -1.1429,0.3303 -0.3172,0 -0.622,-0.0686 -0.9046,-0.2084 v 1.0956 h -3.1487 v -1.0204 h -6.0917 v -0.6767 h -3.8514 l -0.5261,-3.5784 0.5292,-3.4195 h 3.8483 v -2.063 h 6.1994 v 1.5862 h 3.1102 l -0.003,0.0496 c 0.2724,-0.1233 0.5641,-0.1828 0.8662,-0.1828 0.4258,0 0.8258,0.114 1.169,0.3682 0.3068,0.2277 0.5457,0.525 0.6418,0.9 0.0199,0.0777 0.0363,0.1605 0.0493,0.2458 0.0156,-0.038 0.0321,-0.0754 0.0494,-0.1125 0.2225,-0.4748 0.5867,-0.8269 1.055,-1.0605 0.4847,-0.2418 1.0111,-0.341 1.55,-0.341 0.6092,0 1.2302,0.1046 1.7623,0.4153 0.468,0.273 0.8325,0.6542 1.0429,1.1557 0.009,0.0212 0.0175,0.0425 0.0258,0.064 v -1.5018 h 3.5963 l 0.2738,1.5565 0.2494,-1.5565 h 6.5957 v 2.3962 c 0.5003,0.002 1.0721,0.0221 1.5469,0.1372 0.4422,0.1071 0.8022,0.3503 1.0389,0.7361 v -0.3087 c 0,-0.5592 0.0606,-1.18 0.3004,-1.6925 0.2226,-0.4748 0.5868,-0.8269 1.0551,-1.0605 0.4847,-0.2418 1.0111,-0.341 1.55,-0.341 0.6091,0 1.2302,0.1046 1.7623,0.4153 0.468,0.273 0.8325,0.6542 1.0428,1.1557 0.009,0.0212 0.0176,0.0425 0.0258,0.064 v -1.5018 h 3.2179 l -0.003,0.0496 c 0.2724,-0.1233 0.5641,-0.1828 0.8663,-0.1828 0.4257,0 0.8257,0.114 1.169,0.3682 0.2489,0.1849 0.4532,0.4156 0.5729,0.6965 v -2.5177 h 5.434 v 2.4834 h -2.1852 v 0.5227 c 0.5125,0.003 1.0876,0.023 1.5766,0.1361 0.4666,0.1074 0.8521,0.3566 1.1089,0.7631 0.0456,0.0723 0.0856,0.1488 0.1202,0.2287 v -2.5478 h 3.2179 l -0.003,0.0496 c 0.2724,-0.1233 0.5641,-0.1828 0.8662,-0.1828 0.4258,0 0.8258,0.114 1.169,0.3682 0.3067,0.2277 0.5457,0.525 0.6418,0.9 0.0218,0.0851 0.0391,0.1761 0.0533,0.2702 0.1896,-0.4839 0.5292,-0.8572 0.9734,-1.1265 0.5074,-0.3073 1.1038,-0.4119 1.6897,-0.4119 0.4918,0 0.9924,0.0675 1.4491,0.2568 0.3844,0.1593 0.7396,0.387 1.0043,0.7118 0.1454,0.1786 0.2702,0.3722 0.3648,0.5805 v -1.4142 h 3.1267 v 0.2311 c 0.0674,-0.0786 0.1508,-0.1437 0.2542,-0.1897 l 0.0933,-0.0414 h 3.1297 l -0.5235,0.7563 c -0.0774,0.1117 -0.1182,0.2733 -0.1389,0.4337 0.2247,-0.4362 0.5745,-0.7631 1.0173,-0.9839 0.4847,-0.2418 1.0111,-0.341 1.55,-0.341 0.6092,0 1.2302,0.1046 1.7623,0.4153 0.468,0.273 0.8325,0.6542 1.0429,1.1557 0.009,0.0212 0.0175,0.0425 0.0258,0.064 v -1.5018 h 3.2178 l -0.003,0.0496 c 0.2724,-0.1233 0.5641,-0.1828 0.8663,-0.1828 0.4258,0 0.8257,0.114 1.169,0.3682 0.1298,0.0964 0.2478,0.2053 0.3475,0.3274 l -0.3917,-2.1486 h 2.9843 l 0.1244,0.949 0.0593,-0.949 h 2.98 l -0.17,1.5862 h 2.7618 l -0.003,0.0496 c 0.2725,-0.1233 0.5641,-0.1828 0.8663,-0.1828 0.4258,0 0.8257,0.114 1.169,0.3682 0.3067,0.2277 0.5457,0.525 0.6418,0.9 0.009,0.0349 0.017,0.0703 0.0246,0.1069 0.1965,-0.4156 0.5497,-0.726 0.94,-0.9592 0.5258,-0.3147 1.1489,-0.4159 1.7538,-0.4159 0.6574,0 1.3964,0.0953 1.9485,0.4802 0.4445,0.3101 0.7668,0.7277 0.8737,1.2645 0.1417,0.7121 0.1239,1.7212 0.1239,2.4495 v 1.9482 c 0.0476,-0.002 0.1023,-0.006 0.1499,-0.0127 0.0145,-0.1052 0.0159,-0.2492 0.0159,-0.3161 v -5.6804 h 6.0882 v 0.4768 h 3.712 l 0.542,3.4195 -0.5389,3.5784 h -3.7151 v 0.6767 h -3.1376 v -1.1101 c -0.0281,0.0774 -0.0604,0.1511 -0.0975,0.22 -0.2217,0.4138 -0.5823,0.6752 -1.0404,0.7738 -0.5215,0.1123 -1.1735,0.1163 -1.7061,0.1163 h -3.3659 v -0.0199 c -0.2486,0.1072 -0.5167,0.1531 -0.7917,0.1531 -0.4796,0 -0.925,-0.1361 -1.3229,-0.404 -0.2603,-0.1751 -0.4261,-0.4283 -0.5301,-0.7123 -0.1213,0.3217 -0.3322,0.5876 -0.6219,0.786 -0.3405,0.2331 -0.7334,0.3303 -1.143,0.3303 -0.3172,0 -0.6219,-0.0686 -0.9045,-0.2084 z m 14.6616,-5.3155 v 0.0941 l 0.007,-0.0482 z m -11.8108,-0.1066 v 0.3495 c 0.01,-0.0124 0.0198,-0.0243 0.03,-0.0362 0.0976,-0.112 0.2328,-0.2169 0.3861,-0.3133 z m -10.7277,-0.981 v 2.7326 c 0,0.1715 -10e-4,0.3622 -0.008,0.557 h 0.4617 c 0.0369,0 0.0908,2e-4 0.1472,-0.002 -0.0278,-0.1576 -0.0587,-0.3157 -0.0868,-0.4711 z m -11.736,0.7103 c -0.0811,0.1052 -0.1766,0.203 -0.286,0.292 -0.0661,0.0538 -0.1437,0.1057 -0.2268,0.1553 0.2007,0.1211 0.3753,0.2679 0.5128,0.4431 z m -65.4628,-0.3997 -0.1303,0.8229 0.1303,0.8663 z m -12.1121,-2.6141 c 0.0669,-0.3931 0.2188,-0.756 0.4547,-1.0837 0.2778,-0.386 0.6494,-0.6687 1.0834,-0.8586 0.4697,-0.2058 0.9808,-0.2846 1.491,-0.2846 0.4955,0 0.9859,0.0783 1.4457,0.2673 0.4433,0.182 0.8197,0.4626 1.1049,0.8493 0.2699,0.3657 0.4431,0.7781 0.4975,1.2305 0.0748,0.6242 0.068,1.3252 0.068,1.9542 v 1.501 c 0,0.6233 0.005,1.3059 -0.0657,1.9253 -0.0514,0.4509 -0.2107,0.8642 -0.476,1.2327 -0.2778,0.3858 -0.6488,0.6685 -1.0834,0.8587 -0.4697,0.2058 -0.9808,0.2846 -1.491,0.2846 -0.4958,0 -0.9856,-0.0783 -1.4457,-0.2671 -0.443,-0.182 -0.8195,-0.4629 -1.1049,-0.8492 -0.2458,-0.3334 -0.4113,-0.7053 -0.4802,-1.1104 -0.0669,0.3932 -0.2188,0.756 -0.4547,1.0834 -0.2778,0.3858 -0.6488,0.6685 -1.0834,0.8587 -0.4697,0.2058 -0.9808,0.2846 -1.491,0.2846 -0.4958,0 -0.9856,-0.0783 -1.4457,-0.2671 -0.443,-0.182 -0.8195,-0.4629 -1.1049,-0.8492 -0.2458,-0.3334 -0.4113,-0.7053 -0.4802,-1.1104 -0.0669,0.3932 -0.2189,0.756 -0.4547,1.0834 -0.2778,0.3858 -0.6488,0.6685 -1.0834,0.8587 -0.4697,0.2058 -0.9808,0.2846 -1.491,0.2846 -0.4958,0 -0.9856,-0.0783 -1.4457,-0.2671 -0.443,-0.182 -0.8195,-0.4629 -1.1049,-0.8492 -0.2699,-0.366 -0.4431,-0.7784 -0.4975,-1.2305 -0.0748,-0.6245 -0.068,-1.3255 -0.068,-1.9545 v -1.501 c 0,-0.6233 -0.005,-1.3059 0.0657,-1.9253 0.0513,-0.451 0.2106,-0.864 0.476,-1.2328 0.2777,-0.386 0.6494,-0.6687 1.0834,-0.8586 0.4697,-0.2058 0.9807,-0.2846 1.491,-0.2846 0.4955,0 0.9859,0.0783 1.4456,0.2673 0.4434,0.182 0.8198,0.4626 1.105,0.8493 0.2458,0.3331 0.4113,0.7047 0.4802,1.1103 0.0669,-0.3931 0.2188,-0.756 0.4547,-1.0837 0.2778,-0.386 0.6494,-0.6687 1.0834,-0.8586 0.4697,-0.2058 0.9807,-0.2846 1.491,-0.2846 0.4955,0 0.9859,0.0783 1.4457,0.2673 0.4433,0.182 0.8197,0.4626 1.1049,0.8493 0.2458,0.3331 0.4113,0.7047 0.4802,1.1103 z"
       style="fill:#ffffff;fill-rule:evenodd"
       id="path11" />
  </g>
  <g
     id="Layer1002"
     transform="translate(-284.72483,-368.06818)">
    <g
       id="Layer1003">
      <path
         d="m 290.518,373.8161 c 0,0.6071 0.005,1.2758 -0.0632,1.879 -0.0431,0.3813 -0.1769,0.728 -0.4014,1.0395 -0.2347,0.326 -0.5479,0.5621 -0.915,0.7228 -0.4173,0.1826 -0.8736,0.2501 -1.3266,0.2501 -0.4419,0 -0.8796,-0.0681 -1.2898,-0.2364 -0.3739,-0.1537 -0.6902,-0.3875 -0.9309,-0.7135 -0.2279,-0.3087 -0.3747,-0.6543 -0.4204,-1.0361 -0.0728,-0.6069 -0.0652,-1.2937 -0.0652,-1.9054 v -1.501 c 0,-0.6072 -0.005,-1.2759 0.0633,-1.8791 0.043,-0.3812 0.1768,-0.7276 0.4013,-1.0394 0.2348,-0.3263 0.5485,-0.5621 0.9151,-0.7229 0.4172,-0.1825 0.8736,-0.25 1.3266,-0.25 0.4416,0 0.8799,0.068 1.29,0.2364 0.3736,0.1537 0.6903,0.3872 0.9306,0.7135 0.2279,0.3087 0.3748,0.6542 0.4204,1.0364 0.0729,0.6069 0.0652,1.2937 0.0652,1.9051 z m 6.0599,0 c 0,0.6071 0.005,1.2758 -0.0632,1.879 -0.0431,0.3813 -0.1769,0.728 -0.4014,1.0395 -0.2347,0.326 -0.5479,0.5621 -0.915,0.7228 -0.4173,0.1826 -0.8736,0.2501 -1.3266,0.2501 -0.4419,0 -0.8796,-0.0681 -1.2898,-0.2364 -0.3739,-0.1537 -0.6902,-0.3875 -0.9309,-0.7135 -0.2279,-0.3087 -0.3747,-0.6543 -0.4204,-1.0361 -0.0728,-0.6069 -0.0652,-1.2937 -0.0652,-1.9054 v -1.501 c 0,-0.6072 -0.005,-1.2759 0.0633,-1.8791 0.043,-0.3812 0.1768,-0.7276 0.4013,-1.0394 0.2348,-0.3263 0.5486,-0.5621 0.9151,-0.7229 0.4172,-0.1825 0.8736,-0.25 1.3266,-0.25 0.4416,0 0.8799,0.068 1.29,0.2364 0.3736,0.1537 0.6903,0.3872 0.9306,0.7135 0.228,0.3087 0.3748,0.6542 0.4204,1.0364 0.0729,0.6069 0.0652,1.2937 0.0652,1.9051 z m 6.0599,0 c 0,0.6071 0.005,1.2758 -0.0632,1.879 -0.0431,0.3813 -0.1769,0.728 -0.4014,1.0395 -0.2347,0.326 -0.5479,0.5621 -0.915,0.7228 -0.4173,0.1826 -0.8736,0.2501 -1.3266,0.2501 -0.4419,0 -0.8796,-0.0681 -1.2898,-0.2364 -0.3739,-0.1537 -0.6902,-0.3875 -0.9309,-0.7135 -0.2279,-0.3087 -0.3747,-0.6543 -0.4203,-1.0361 -0.0729,-0.6069 -0.0652,-1.2937 -0.0652,-1.9054 v -1.501 c 0,-0.6072 -0.005,-1.2759 0.0632,-1.8791 0.0431,-0.3812 0.1768,-0.7276 0.4014,-1.0394 0.2347,-0.3263 0.5485,-0.5621 0.915,-0.7229 0.4172,-0.1825 0.8736,-0.25 1.3266,-0.25 0.4416,0 0.8799,0.068 1.29,0.2364 0.3736,0.1537 0.6903,0.3872 0.9307,0.7135 0.2279,0.3087 0.3747,0.6542 0.4203,1.0364 0.0729,0.6069 0.0652,1.2937 0.0652,1.9051 z m 2.8797,-3.1519 h 1.4324 l -0.4677,3.0064 0.4671,3.1717 h -1.432 l -0.4641,-3.1776 z m 1.9968,0 h 1.4323 l -0.4788,3.0064 0.4782,3.1717 h -1.4323 l -0.4748,-3.1779 z m 4.8608,-0.1664 h -0.5216 v 7.0212 h -2.429 v -8.9178 h 5.3796 v 8.9178 h -2.429 z m 5.4834,0.1803 c 0.1513,-0.1684 0.3251,-0.3158 0.5255,-0.4246 0.2492,-0.1355 0.5196,-0.1993 0.8033,-0.1993 0.3374,0 0.6526,0.0859 0.9247,0.2877 0.2299,0.1704 0.4167,0.3906 0.489,0.6724 0.0924,0.3603 0.0949,0.8612 0.0949,1.2325 v 3.03 c 0,0.4229 -0.005,1.0068 -0.119,1.415 -0.0828,0.294 -0.2537,0.5292 -0.506,0.7019 -0.2716,0.1856 -0.5851,0.2585 -0.9113,0.2585 -0.2784,0 -0.5432,-0.0646 -0.7872,-0.1996 -0.201,-0.1108 -0.3753,-0.2596 -0.5273,-0.43 v 1.5168 h -2.3289 v -8.352 h 2.3723 z m 5.6766,3.369 v 1.4865 c 0,0.1355 0.002,0.4765 0.0627,0.5981 0.0408,0.0819 0.1236,0.1009 0.2092,0.1009 0.1167,0 0.2202,-0.0323 0.271,-0.1446 0.0748,-0.1658 0.0785,-0.5164 0.0785,-0.6967 v -1.0222 h 2.2184 v 0.6043 c 0,0.3314 -0.009,0.7195 -0.0854,1.0426 -0.0677,0.2875 -0.2298,0.5587 -0.4062,0.7923 -0.2137,0.2829 -0.487,0.4947 -0.8129,0.6344 -0.3765,0.1619 -0.8107,0.2095 -1.2172,0.2095 -0.4238,0 -0.853,-0.0556 -1.251,-0.2061 -0.3245,-0.123 -0.6293,-0.303 -0.856,-0.57 -0.1996,-0.235 -0.3425,-0.5012 -0.423,-0.7988 -0.1029,-0.3796 -0.117,-0.849 -0.117,-1.2408 v -2.0982 c 0,-0.4943 0.0496,-1.0655 0.2619,-1.5188 0.1831,-0.3909 0.4813,-0.6752 0.8668,-0.8674 0.4272,-0.2131 0.8921,-0.2979 1.3669,-0.2979 0.534,0 1.0885,0.0867 1.5556,0.3594 0.3909,0.2279 0.6957,0.5412 0.8714,0.9604 0.205,0.4887 0.2461,1.1248 0.2461,1.6492 v 1.0239 z m 8.3322,-0.7668 -0.7793,4.2387 h -1.3175 l -0.8093,-4.2631 v 4.2631 h -2.0186 v -7.3316 h 2.8423 l 0.637,3.6196 0.5797,-3.6196 h 2.8842 v 7.3316 h -2.0185 z m 4.9708,-0.697 h 0.2849 c 0.4921,0 1.0956,0.01 1.5752,0.1258 0.3472,0.0842 0.6233,0.2702 0.8033,0.5811 0.2175,0.3756 0.2537,0.9502 0.2537,1.3746 v 0.7302 c 0,0.4325 -0.0286,1.0576 -0.2375,1.4465 -0.167,0.3104 -0.4297,0.4969 -0.7733,0.5703 -0.4915,0.1055 -1.1214,0.1072 -1.6234,0.1072 h -2.6008 v -7.3316 h 2.3179 z m 5.7345,1.4638 v 1.4865 c 0,0.1355 0.002,0.4765 0.0626,0.5981 0.0409,0.0819 0.1236,0.1009 0.2092,0.1009 0.1168,0 0.2203,-0.0323 0.271,-0.1446 0.0749,-0.1658 0.0786,-0.5164 0.0786,-0.6967 v -1.0222 h 2.2183 v 0.6043 c 0,0.3314 -0.009,0.7195 -0.0853,1.0426 -0.0677,0.2875 -0.2299,0.5587 -0.4062,0.7923 -0.2137,0.2829 -0.487,0.4947 -0.813,0.6344 -0.3764,0.1619 -0.8107,0.2095 -1.2172,0.2095 -0.4237,0 -0.8529,-0.0556 -1.2509,-0.2061 -0.3246,-0.123 -0.6293,-0.303 -0.856,-0.57 -0.1996,-0.235 -0.3425,-0.5012 -0.423,-0.7988 -0.1029,-0.3796 -0.117,-0.849 -0.117,-1.2408 v -2.0982 c 0,-0.4943 0.0496,-1.0655 0.2619,-1.5188 0.1831,-0.3909 0.4813,-0.6752 0.8668,-0.8674 0.4272,-0.2131 0.8921,-0.2979 1.3669,-0.2979 0.534,0 1.0885,0.0867 1.5556,0.3594 0.3909,0.2279 0.6957,0.5412 0.8714,0.9604 0.2049,0.4887 0.246,1.1248 0.246,1.6492 v 1.0239 z m 5.7498,-3.369 c 0.1514,-0.1684 0.3251,-0.3158 0.5255,-0.4246 0.2492,-0.1355 0.5196,-0.1993 0.8034,-0.1993 0.3373,0 0.6525,0.0859 0.9246,0.2877 0.2299,0.1704 0.4167,0.3906 0.489,0.6724 0.0924,0.3603 0.095,0.8612 0.095,1.2325 v 3.03 c 0,0.4229 -0.005,1.0068 -0.1191,1.415 -0.0828,0.294 -0.2537,0.5292 -0.506,0.7019 -0.2715,0.1856 -0.585,0.2585 -0.9113,0.2585 -0.2784,0 -0.5431,-0.0646 -0.7872,-0.1996 -0.201,-0.1108 -0.3753,-0.2596 -0.5272,-0.43 v 1.5168 h -2.329 v -8.352 h 2.3723 z m 5.9097,-0.4133 v 1.3422 h 0.2812 c 0.5091,0 1.116,0.0111 1.6132,0.1259 0.3608,0.083 0.6556,0.2679 0.8546,0.5825 0.2367,0.375 0.2792,0.9411 0.2792,1.3731 v 1.7065 c 0,0.4393 -0.0357,1.0561 -0.265,1.4434 -0.1848,0.3121 -0.4652,0.496 -0.8184,0.57 -0.5097,0.1066 -1.1438,0.1106 -1.6636,0.1106 h -2.7102 v -8.9178 h 4.6142 v 1.6636 z m 5.9677,0.4133 c 0.1514,-0.1684 0.3252,-0.3158 0.5256,-0.4246 0.2492,-0.1355 0.5196,-0.1993 0.8033,-0.1993 0.3373,0 0.6526,0.0859 0.9247,0.2877 0.2299,0.1704 0.4167,0.3906 0.489,0.6724 0.0924,0.3603 0.0949,0.8612 0.0949,1.2325 v 3.03 c 0,0.4229 -0.005,1.0068 -0.119,1.415 -0.0828,0.294 -0.2537,0.5292 -0.506,0.7019 -0.2716,0.1856 -0.5851,0.2585 -0.9114,0.2585 -0.2783,0 -0.5431,-0.0646 -0.7871,-0.1996 -0.201,-0.1108 -0.3753,-0.2596 -0.5273,-0.43 v 1.5168 h -2.3289 v -8.352 h 2.3723 z m 8.5054,2.1047 v 1.7618 c 0,0.451 -0.005,0.9966 -0.0998,1.4385 -0.0694,0.326 -0.2211,0.6169 -0.4303,0.8751 -0.2265,0.2801 -0.515,0.4771 -0.8515,0.6027 -0.3745,0.1397 -0.7773,0.1913 -1.1753,0.1913 -0.4138,0 -0.8543,-0.0369 -1.2509,-0.1624 -0.3098,-0.0981 -0.6001,-0.2554 -0.8147,-0.504 -0.2029,-0.2353 -0.3364,-0.5114 -0.4147,-0.811 -0.1097,-0.4215 -0.1204,-0.9579 -0.1204,-1.3918 v -1.8431 c 0,-0.5094 0.0371,-1.1135 0.2211,-1.5934 0.1559,-0.407 0.4385,-0.7149 0.8098,-0.9397 0.4411,-0.267 0.9689,-0.3526 1.4774,-0.3526 0.4366,0 0.8864,0.0573 1.2921,0.2254 0.3203,0.1329 0.6225,0.3211 0.8436,0.5924 0.1817,0.2231 0.3271,0.4742 0.4053,0.7523 0.0981,0.3475 0.1083,0.7991 0.1083,1.1585 z m 2.8857,0.1976 c 0.3852,-0.0249 0.5437,-0.2554 0.5437,-0.6562 v -1.2181 c 0,-0.2488 0.0113,-0.7883 0.2868,-0.9107 l 0.0139,-0.006 h 2.2604 l -0.0783,0.1131 c -0.1899,0.2744 -0.2313,0.6733 -0.2313,0.9978 v 1.0021 c 0,0.3804 -0.1601,0.6874 -0.4538,0.9266 -0.1735,0.1415 -0.4737,0.2804 -0.6761,0.377 -0.1139,0.0545 -0.2321,0.0953 -0.3529,0.1236 0.1091,0.0295 0.2174,0.061 0.3215,0.0904 0.6448,0.2039 1.1724,0.5908 1.1724,1.3182 v 1.2608 c 0,0.324 0.0399,0.7296 0.231,1.0035 l 0.0791,0.1131 h -2.2819 l -0.0216,-0.0292 c -0.1907,-0.258 -0.2582,-0.5698 -0.2582,-0.8858 v -1.5177 c 0,-0.4065 -0.1664,-0.6319 -0.5547,-0.656 v 3.0887 h -2.3069 v -7.3262 h 2.3069 z m 5.6253,1.0667 v 1.4865 c 0,0.1355 0.002,0.4765 0.0627,0.5981 0.0408,0.0819 0.1236,0.1009 0.2092,0.1009 0.1168,0 0.2202,-0.0323 0.271,-0.1446 0.0748,-0.1658 0.0785,-0.5164 0.0785,-0.6967 v -1.0222 h 2.2184 v 0.6043 c 0,0.3314 -0.009,0.7195 -0.0854,1.0426 -0.0677,0.2875 -0.2298,0.5587 -0.4062,0.7923 -0.2137,0.2829 -0.487,0.4947 -0.8129,0.6344 -0.3765,0.1619 -0.8107,0.2095 -1.2172,0.2095 -0.4238,0 -0.853,-0.0556 -1.251,-0.2061 -0.3245,-0.123 -0.6293,-0.303 -0.856,-0.57 -0.1996,-0.235 -0.3424,-0.5012 -0.423,-0.7988 -0.1029,-0.3796 -0.117,-0.849 -0.117,-1.2408 v -2.0982 c 0,-0.4943 0.0496,-1.0655 0.2619,-1.5188 0.1831,-0.3909 0.4813,-0.6752 0.8668,-0.8674 0.4272,-0.2131 0.8921,-0.2979 1.3669,-0.2979 0.534,0 1.0885,0.0867 1.5557,0.3594 0.3908,0.2279 0.6956,0.5412 0.8713,0.9604 0.205,0.4887 0.2461,1.1248 0.2461,1.6492 v 1.0239 z m 5.7498,-3.369 c 0.1514,-0.1684 0.3251,-0.3158 0.5256,-0.4246 0.2491,-0.1355 0.5195,-0.1993 0.8033,-0.1993 0.3373,0 0.6525,0.0859 0.9247,0.2877 0.2298,0.1704 0.4167,0.3906 0.4889,0.6724 0.0924,0.3603 0.095,0.8612 0.095,1.2325 v 3.03 c 0,0.4229 -0.005,1.0068 -0.1191,1.415 -0.0827,0.294 -0.2537,0.5292 -0.5059,0.7019 -0.2716,0.1856 -0.5851,0.2585 -0.9114,0.2585 -0.2783,0 -0.5431,-0.0646 -0.7872,-0.1996 -0.2009,-0.1108 -0.3753,-0.2596 -0.5272,-0.43 v 1.5168 h -2.329 v -8.352 h 2.3724 z m 5.7067,2.7179 0.2999,-4.7948 h 2.1391 l -0.6316,5.8901 c -0.0649,0.604 -0.1412,1.3637 -0.3172,1.9451 -0.1131,0.373 -0.3345,0.6625 -0.6857,0.8368 -0.4385,0.2174 -1.1353,0.2458 -1.6163,0.2458 h -1.4032 v -1.2753 h 0.2089 c 0.0995,0 0.434,-0.003 0.5171,-0.061 0.057,-0.0397 0.0765,-0.0967 0.0768,-0.1576 -0.0292,-0.2375 -0.0873,-0.5009 -0.1304,-0.7373 l -1.2189,-6.6866 h 2.1331 z m 5.021,-2.7179 c 0.1514,-0.1684 0.3252,-0.3158 0.5256,-0.4246 0.2491,-0.1355 0.5196,-0.1993 0.8033,-0.1993 0.3373,0 0.6525,0.0859 0.9247,0.2877 0.2299,0.1704 0.4167,0.3906 0.489,0.6724 0.0924,0.3603 0.0949,0.8612 0.0949,1.2325 v 3.03 c 0,0.4229 -0.005,1.0068 -0.119,1.415 -0.0828,0.294 -0.2537,0.5292 -0.506,0.7019 -0.2716,0.1856 -0.5851,0.2585 -0.9114,0.2585 -0.2783,0 -0.5431,-0.0646 -0.7871,-0.1996 -0.201,-0.1108 -0.3754,-0.2596 -0.5273,-0.43 v 1.5168 h -2.3289 v -8.352 h 2.3723 z m 6.1206,6.3842 c -0.1094,0.1528 -0.2438,0.2843 -0.4079,0.3849 -0.2407,0.148 -0.5136,0.205 -0.7937,0.205 -0.398,0 -0.7639,-0.1117 -1.0942,-0.3339 -0.4447,-0.2994 -0.5105,-0.9862 -0.5105,-1.4723 v -0.5916 c 0,-0.3487 0.032,-0.8697 0.2727,-1.1472 0.2517,-0.2897 0.9408,-0.5652 1.2929,-0.7022 0.1372,-0.0533 1.0545,-0.4133 1.1174,-0.5351 0.0646,-0.1245 0.068,-0.4261 0.068,-0.5641 0,-0.167 -0.002,-0.5508 -0.0776,-0.7019 -0.0448,-0.0907 -0.116,-0.1301 -0.2166,-0.1301 -0.0785,0 -0.1786,0.0125 -0.2101,0.0986 -0.0538,0.1372 -0.0507,0.5678 -0.0507,0.7186 v 0.8243 h -2.196 v -0.5544 c 0,-0.4193 0.0332,-0.9258 0.1981,-1.3164 0.154,-0.3643 0.4697,-0.6339 0.8022,-0.8326 0.4595,-0.2746 1.0157,-0.3577 1.5435,-0.3577 0.565,0 1.2379,0.0746 1.7141,0.4068 0.3566,0.2486 0.6202,0.5763 0.7061,1.008 0.1355,0.6803 0.116,1.6736 0.116,2.3695 v 3.6805 h -2.2737 z m 6.2099,-5.2226 h -0.6327 v 3.5553 c 0,0.4314 -0.0281,1.0621 -0.2359,1.4502 -0.165,0.3075 -0.4252,0.4935 -0.7653,0.5666 -0.4896,0.1055 -1.12,0.1072 -1.62,0.1072 h -0.4289 V 376.2 l 0.0711,-9e-4 c 0.1466,-0.002 0.4096,-0.0136 0.5375,-0.0943 0.1182,-0.0746 0.1236,-0.5281 0.1236,-0.6469 v -5.2705 h 5.2684 v 7.3316 h -2.3178 z m 6.0896,-1.1755 0.4757,3.0223 -0.4751,3.1558 h -1.4324 l 0.4785,-3.1609 -0.479,-3.0172 z m -1.974,0 0.4643,3.022 -0.464,3.1561 h -1.4321 l 0.4671,-3.1609 -0.4677,-3.0172 z m -122.0505,0.2699 c 0,-0.1763 0.002,-0.5927 -0.0618,-0.7557 -0.0363,-0.093 -0.108,-0.1242 -0.2047,-0.1242 -0.0898,0 -0.1579,0.032 -0.2086,0.1069 -0.0774,0.1145 -0.0799,0.6346 -0.0799,0.773 v 4.0949 c 0,0.2035 -0.007,0.7291 0.0572,0.9176 0.0346,0.1009 0.1128,0.1307 0.2146,0.1307 0.1142,0 0.1891,-0.0434 0.2234,-0.1545 0.068,-0.2183 0.0598,-0.7271 0.0598,-0.9587 z m 6.0599,0 c 0,-0.1763 0.002,-0.5927 -0.0618,-0.7557 -0.0363,-0.093 -0.108,-0.1242 -0.2047,-0.1242 -0.0898,0 -0.1578,0.032 -0.2086,0.1069 -0.0774,0.1145 -0.0799,0.6346 -0.0799,0.773 v 4.0949 c 0,0.2035 -0.007,0.7291 0.0572,0.9176 0.0346,0.1009 0.1129,0.1307 0.2146,0.1307 0.1143,0 0.1891,-0.0434 0.2234,-0.1545 0.068,-0.2183 0.0598,-0.7271 0.0598,-0.9587 z m 6.0599,0 c 0,-0.1763 0.002,-0.5927 -0.0618,-0.7557 -0.0363,-0.093 -0.108,-0.1242 -0.2047,-0.1242 -0.0898,0 -0.1578,0.032 -0.2086,0.1069 -0.0774,0.1145 -0.0799,0.6346 -0.0799,0.773 v 4.0949 c 0,0.2035 -0.007,0.7291 0.0572,0.9176 0.0346,0.1009 0.1129,0.1307 0.2146,0.1307 0.1143,0 0.1891,-0.0434 0.2234,-0.1545 0.068,-0.2183 0.0598,-0.7271 0.0598,-0.9587 z m 18.1576,1.4162 c 0,-0.1659 0.006,-0.6322 -0.0459,-0.7847 -0.0284,-0.0819 -0.1296,-0.0918 -0.2038,-0.0918 -0.095,0 -0.1769,0.023 -0.214,0.1171 -0.0607,0.1545 -0.0579,0.591 -0.0579,0.7594 v 2.98 c 0,0.1695 -0.003,0.6302 0.0596,0.7847 0.0377,0.0941 0.1227,0.1176 0.2179,0.1176 0.0825,0 0.1659,-0.0159 0.1965,-0.102 0.0519,-0.146 0.0476,-0.5412 0.0476,-0.6988 z m 5.6789,0.3883 v -0.453 c 0,-0.1678 0.002,-0.5394 -0.0564,-0.6959 -0.032,-0.0859 -0.0929,-0.1159 -0.1822,-0.1159 -0.0763,0 -0.1885,0.0105 -0.2214,0.0933 -0.0536,0.1343 -0.0505,0.5703 -0.0505,0.7185 v 0.453 z m 12.7925,1.3672 v 1.7597 c 0.1517,-0.003 0.3694,-0.0212 0.4737,-0.0964 0.1193,-0.0859 0.1256,-0.5105 0.1256,-0.6386 v -0.2866 c 0,-0.121 -0.004,-0.5352 -0.0919,-0.6293 -0.0714,-0.0768 -0.3509,-0.1009 -0.5074,-0.1088 z m 6.245,-1.3672 v -0.453 c 0,-0.1678 0.002,-0.5394 -0.0564,-0.6959 -0.032,-0.0859 -0.093,-0.1159 -0.1823,-0.1159 -0.0762,0 -0.1885,0.0105 -0.2213,0.0933 -0.0536,0.1343 -0.0505,0.5703 -0.0505,0.7185 v 0.453 z m 5.7475,-0.3883 c 0,-0.1659 0.006,-0.6322 -0.0459,-0.7847 -0.0283,-0.0819 -0.1295,-0.0918 -0.2038,-0.0918 -0.0949,0 -0.1769,0.023 -0.214,0.1171 -0.0607,0.1545 -0.0578,0.591 -0.0578,0.7594 v 2.98 c 0,0.1695 -0.003,0.6302 0.0595,0.7847 0.0377,0.0941 0.1227,0.1176 0.218,0.1176 0.0825,0 0.1658,-0.0159 0.1964,-0.102 0.0519,-0.146 0.0476,-0.5412 0.0476,-0.6988 z m 5.4015,0.7795 v 2.7357 c 0.1516,-0.003 0.3693,-0.0212 0.4736,-0.0964 0.1194,-0.0859 0.1256,-0.5105 0.1256,-0.6386 v -1.2682 c 0,-0.1208 -0.004,-0.5298 -0.0916,-0.6237 -0.0714,-0.0771 -0.3509,-0.1009 -0.5076,-0.1088 z m 6.476,-0.7795 c 0,-0.1659 0.006,-0.6322 -0.0459,-0.7847 -0.0284,-0.0819 -0.1296,-0.0918 -0.2038,-0.0918 -0.095,0 -0.1769,0.023 -0.2141,0.1171 -0.0606,0.1545 -0.0578,0.591 -0.0578,0.7594 v 2.98 c 0,0.1695 -0.003,0.6302 0.0595,0.7847 0.0377,0.0941 0.1228,0.1176 0.218,0.1176 0.0825,0 0.1659,-0.0159 0.1965,-0.102 0.0518,-0.146 0.0476,-0.5412 0.0476,-0.6988 z m 5.6679,-0.1092 c 0,-0.1445 0.001,-0.5357 -0.0536,-0.6672 -0.0337,-0.0808 -0.1086,-0.1001 -0.1905,-0.1001 -0.0845,0 -0.1599,0.0207 -0.197,0.102 -0.0584,0.1282 -0.0584,0.5233 -0.0584,0.6653 v 3.2446 c 0,0.1505 6e-4,0.4969 0.0592,0.6355 0.0358,0.0845 0.1027,0.1114 0.1905,0.1114 0.0822,0 0.1571,-0.0181 0.1931,-0.0981 0.0558,-0.1241 0.0567,-0.4411 0.0567,-0.5768 z m 11.3507,0.4975 v -0.453 c 0,-0.1678 0.002,-0.5394 -0.0564,-0.6959 -0.032,-0.0859 -0.0929,-0.1159 -0.1822,-0.1159 -0.0763,0 -0.1885,0.0105 -0.2214,0.0933 -0.0536,0.1343 -0.0505,0.5703 -0.0505,0.7185 v 0.453 z m 5.7476,-0.3883 c 0,-0.1659 0.006,-0.6322 -0.046,-0.7847 -0.0283,-0.0819 -0.1295,-0.0918 -0.2038,-0.0918 -0.0949,0 -0.1768,0.023 -0.214,0.1171 -0.0606,0.1545 -0.0578,0.591 -0.0578,0.7594 v 2.98 c 0,0.1695 -0.003,0.6302 0.0595,0.7847 0.0377,0.0941 0.1228,0.1176 0.218,0.1176 0.0825,0 0.1658,-0.0159 0.1964,-0.102 0.0519,-0.146 0.0477,-0.5412 0.0477,-0.6988 z m 10.7277,0 c 0,-0.1659 0.006,-0.6322 -0.0459,-0.7847 -0.0284,-0.0819 -0.1296,-0.0918 -0.2038,-0.0918 -0.095,0 -0.1769,0.023 -0.2141,0.1171 -0.0606,0.1545 -0.0578,0.591 -0.0578,0.7594 v 2.98 c 0,0.1695 -0.003,0.6302 0.0595,0.7847 0.0377,0.0941 0.1228,0.1176 0.218,0.1176 0.0825,0 0.1658,-0.0159 0.1965,-0.102 0.0518,-0.146 0.0476,-0.5412 0.0476,-0.6988 z m 5.557,1.8224 c -0.1811,0.1403 -0.4161,0.3464 -0.4734,0.5232 -0.0705,0.2175 -0.0816,0.4978 -0.0816,0.7249 0,0.1624 9e-4,0.5431 0.0677,0.6916 0.0423,0.0944 0.1285,0.1202 0.2265,0.1202 0.0757,0 0.1678,-0.0125 0.2055,-0.0879 0.0556,-0.1111 0.0553,-0.5108 0.0553,-0.6369 z"
         style="fill:#ffffff;fill-rule:evenodd"
         id="path14" />
    </g>
    <g
       id="g755">
      <path
         d="m 290.446,373.8161 c 0,0.8818 -0.0201,1.5049 -0.0626,1.8708 -0.0408,0.368 -0.1701,0.7027 -0.3884,1.0058 -0.2182,0.3033 -0.5139,0.536 -0.8855,0.6987 -0.3716,0.1627 -0.8042,0.2441 -1.2977,0.2441 -0.4697,0 -0.8892,-0.0777 -1.2626,-0.2311 -0.3736,-0.1533 -0.6749,-0.3826 -0.9003,-0.6896 -0.2276,-0.3067 -0.3625,-0.6415 -0.4067,-1.0018 -0.0425,-0.3625 -0.0647,-0.9947 -0.0647,-1.8969 v -1.501 c 0,-0.8818 0.0202,-1.5049 0.0627,-1.8708 0.0408,-0.368 0.1701,-0.7025 0.3883,-1.0058 0.218,-0.303 0.514,-0.536 0.8856,-0.6987 0.3716,-0.1627 0.8042,-0.2441 1.2977,-0.2441 0.4694,0 0.8892,0.0777 1.2625,0.231 0.3736,0.1537 0.675,0.3827 0.9003,0.6897 0.2274,0.3067 0.3626,0.6415 0.4068,1.0021 0.0425,0.3622 0.0646,0.9944 0.0646,1.8966 z m -2.2847,-2.882 c 0,-0.4068 -0.0224,-0.6673 -0.0666,-0.7818 -0.0445,-0.1128 -0.135,-0.1701 -0.2719,-0.1701 -0.1165,0 -0.2052,0.0462 -0.2681,0.1386 -0.061,0.0904 -0.0924,0.3623 -0.0924,0.8133 v 4.0949 c 0,0.5083 0.0204,0.8226 0.0612,0.9408 0.0405,0.1202 0.1349,0.1795 0.2826,0.1795 0.1517,0 0.2497,-0.0686 0.2923,-0.2053 0.0425,-0.1369 0.0629,-0.464 0.0629,-0.9799 z m 8.3446,2.882 c 0,0.8818 -0.0201,1.5049 -0.0626,1.8708 -0.0408,0.368 -0.1701,0.7027 -0.3884,1.0058 -0.2182,0.3033 -0.5139,0.536 -0.8855,0.6987 -0.3716,0.1627 -0.8042,0.2441 -1.2977,0.2441 -0.4697,0 -0.8892,-0.0777 -1.2626,-0.2311 -0.3736,-0.1533 -0.6749,-0.3826 -0.9002,-0.6896 -0.2277,-0.3067 -0.3626,-0.6415 -0.4068,-1.0018 -0.0425,-0.3625 -0.0647,-0.9947 -0.0647,-1.8969 v -1.501 c 0,-0.8818 0.0202,-1.5049 0.0627,-1.8708 0.0408,-0.368 0.1701,-0.7025 0.3883,-1.0058 0.218,-0.303 0.514,-0.536 0.8856,-0.6987 0.3716,-0.1627 0.8042,-0.2441 1.2977,-0.2441 0.4694,0 0.8892,0.0777 1.2625,0.231 0.3736,0.1537 0.675,0.3827 0.9003,0.6897 0.2274,0.3067 0.3626,0.6415 0.4068,1.0021 0.0425,0.3622 0.0646,0.9944 0.0646,1.8966 z m -2.2847,-2.882 c 0,-0.4068 -0.0224,-0.6673 -0.0666,-0.7818 -0.0445,-0.1128 -0.1349,-0.1701 -0.2719,-0.1701 -0.1165,0 -0.2052,0.0462 -0.2681,0.1386 -0.061,0.0904 -0.0924,0.3623 -0.0924,0.8133 v 4.0949 c 0,0.5083 0.0204,0.8226 0.0612,0.9408 0.0405,0.1202 0.1349,0.1795 0.2826,0.1795 0.1517,0 0.2497,-0.0686 0.2923,-0.2053 0.0425,-0.1369 0.0629,-0.464 0.0629,-0.9799 z m 8.3446,2.882 c 0,0.8818 -0.0201,1.5049 -0.0626,1.8708 -0.0408,0.368 -0.1701,0.7027 -0.3884,1.0058 -0.2182,0.3033 -0.5139,0.536 -0.8855,0.6987 -0.3716,0.1627 -0.8042,0.2441 -1.2977,0.2441 -0.4697,0 -0.8892,-0.0777 -1.2626,-0.2311 -0.3736,-0.1533 -0.6749,-0.3826 -0.9002,-0.6896 -0.2277,-0.3067 -0.3626,-0.6415 -0.4068,-1.0018 -0.0425,-0.3625 -0.0646,-0.9947 -0.0646,-1.8969 v -1.501 c 0,-0.8818 0.0201,-1.5049 0.0626,-1.8708 0.0408,-0.368 0.1701,-0.7025 0.3883,-1.0058 0.218,-0.303 0.514,-0.536 0.8856,-0.6987 0.3716,-0.1627 0.8042,-0.2441 1.2977,-0.2441 0.4694,0 0.8892,0.0777 1.2625,0.231 0.3736,0.1537 0.675,0.3827 0.9003,0.6897 0.2274,0.3067 0.3626,0.6415 0.4068,1.0021 0.0425,0.3622 0.0646,0.9944 0.0646,1.8966 z m -2.2847,-2.882 c 0,-0.4068 -0.0224,-0.6673 -0.0666,-0.7818 -0.0445,-0.1128 -0.1349,-0.1701 -0.2719,-0.1701 -0.1165,0 -0.2052,0.0462 -0.2681,0.1386 -0.061,0.0904 -0.0924,0.3623 -0.0924,0.8133 v 4.0949 c 0,0.5083 0.0204,0.8226 0.0612,0.9408 0.0405,0.1202 0.1349,0.1795 0.2826,0.1795 0.1517,0 0.2498,-0.0686 0.2923,-0.2053 0.0425,-0.1369 0.0629,-0.464 0.0629,-0.9799 z m 5.2982,-0.1979 h 1.2867 l -0.455,2.9395 0.455,3.0946 h -1.2867 l -0.4549,-3.0946 z m 1.9965,0 h 1.2866 l -0.4657,2.9395 0.4657,3.0946 h -1.2866 l -0.4658,-3.0946 z m 7.1563,6.7108 h -2.285 v -7.0212 h -0.6656 v 7.0212 h -2.285 v -8.7738 h 5.2356 z m 3.0799,-7.1876 -0.0389,0.6358 c 0.1959,-0.2588 0.4105,-0.4509 0.6452,-0.5785 0.2347,-0.1276 0.4918,-0.1905 0.769,-0.1905 0.3402,0 0.6341,0.0907 0.8819,0.2735 0.2458,0.1832 0.4011,0.3941 0.462,0.6325 0.0613,0.2384 0.0927,0.6431 0.0927,1.2146 v 3.03 c 0,0.6542 -0.0388,1.1182 -0.1165,1.3955 -0.0776,0.2755 -0.2367,0.4974 -0.477,0.6618 -0.2404,0.1647 -0.5307,0.2461 -0.8708,0.2461 -0.2699,0 -0.5213,-0.0629 -0.7524,-0.1905 -0.231,-0.1276 -0.4419,-0.3161 -0.6341,-0.5675 v 1.6452 h -2.1849 v -8.208 z m 0.6267,2.0909 c 0,-0.4456 -0.0167,-0.7138 -0.0499,-0.8079 -0.0314,-0.0944 -0.1222,-0.1406 -0.2718,-0.1406 -0.146,0 -0.2384,0.0536 -0.2809,0.1627 -0.0426,0.1072 -0.063,0.3696 -0.063,0.7858 v 2.98 c 0,0.4326 0.0221,0.7042 0.0647,0.8116 0.0445,0.1088 0.1389,0.1627 0.2848,0.1627 0.1423,0 0.2291,-0.0499 0.2642,-0.15 0.0352,-0.0977 0.0519,-0.3401 0.0519,-0.7228 z m 7.8642,1.6248 h -2.8398 v 1.5585 c 0,0.3254 0.0241,0.536 0.0703,0.6304 0.0482,0.0944 0.1386,0.1406 0.2736,0.1406 0.1683,0 0.2812,-0.0629 0.3364,-0.1868 0.0576,-0.1259 0.0851,-0.3679 0.0851,-0.7265 v -0.9502 h 2.0744 v 0.5323 c 0,0.4457 -0.0278,0.7875 -0.0834,1.0262 -0.0572,0.2384 -0.1885,0.4935 -0.3937,0.7653 -0.2052,0.2716 -0.4677,0.4751 -0.7838,0.6118 -0.316,0.1349 -0.7118,0.2035 -1.1888,0.2035 -0.4621,0 -0.8706,-0.0666 -1.2255,-0.2016 -0.3531,-0.1332 -0.6287,-0.3163 -0.8265,-0.549 -0.1976,-0.233 -0.3325,-0.4899 -0.4085,-0.771 -0.0757,-0.2793 -0.1145,-0.6857 -0.1145,-1.2221 v -2.0982 c 0,-0.6284 0.085,-1.1239 0.2551,-1.4882 0.1701,-0.3622 0.4473,-0.6414 0.8337,-0.8336 0.3883,-0.1942 0.8319,-0.2903 1.3348,-0.2903 0.6137,0 1.1202,0.1165 1.5194,0.3495 0.3994,0.233 0.6803,0.5417 0.8413,0.9261 0.1607,0.3827 0.2404,0.9244 0.2404,1.6214 z m -2.1853,-1.1645 v -0.525 c 0,-0.3736 -0.0204,-0.612 -0.0609,-0.7211 -0.0408,-0.1091 -0.1239,-0.1627 -0.2497,-0.1627 -0.1551,0 -0.2515,0.0462 -0.2883,0.1386 -0.0369,0.0924 -0.0556,0.3402 -0.0556,0.7452 v 0.525 z m 9.6962,4.6364 h -1.8745 v -4.9564 l -0.9114,4.9564 H 329.83 l -0.9408,-4.9564 v 4.9564 h -1.8746 v -7.1876 h 2.71 l 0.7007,3.9819 0.6378,-3.9819 h 2.7507 z m 5.8694,-2.052 c 0,0.6562 -0.0756,1.1276 -0.229,1.4125 -0.1536,0.2863 -0.3957,0.4637 -0.7248,0.534 -0.3271,0.0703 -0.8634,0.1055 -1.6084,0.1055 h -2.5288 v -7.1876 h 2.1739 v 2.3959 h 0.3569 c 0.6967,0 1.2163,0.0405 1.5582,0.1238 0.3441,0.0831 0.5953,0.2662 0.758,0.5471 0.1627,0.2809 0.244,0.7285 0.244,1.3386 z m -2.1738,-0.2645 v -0.2866 c 0,-0.3733 -0.0372,-0.599 -0.1112,-0.6783 -0.0737,-0.0794 -0.2846,-0.1239 -0.6321,-0.135 v 1.9078 c 0.2903,0 0.4862,-0.0369 0.5879,-0.1109 0.1035,-0.074 0.1554,-0.307 0.1554,-0.697 z m 7.8309,-1.1554 h -2.8397 v 1.5585 c 0,0.3254 0.0241,0.536 0.0703,0.6304 0.0482,0.0944 0.1386,0.1406 0.2735,0.1406 0.1684,0 0.2812,-0.0629 0.3365,-0.1868 0.0576,-0.1259 0.0851,-0.3679 0.0851,-0.7265 v -0.9502 h 2.0743 v 0.5323 c 0,0.4457 -0.0277,0.7875 -0.0833,1.0262 -0.0573,0.2384 -0.1885,0.4935 -0.3937,0.7653 -0.2053,0.2716 -0.4677,0.4751 -0.7838,0.6118 -0.3161,0.1349 -0.7118,0.2035 -1.1889,0.2035 -0.462,0 -0.8705,-0.0666 -1.2254,-0.2016 -0.3532,-0.1332 -0.6287,-0.3163 -0.8266,-0.549 -0.1975,-0.233 -0.3325,-0.4899 -0.4084,-0.771 -0.0757,-0.2793 -0.1145,-0.6857 -0.1145,-1.2221 v -2.0982 c 0,-0.6284 0.085,-1.1239 0.2551,-1.4882 0.1701,-0.3622 0.4473,-0.6414 0.8336,-0.8336 0.3884,-0.1942 0.832,-0.2903 1.3349,-0.2903 0.6137,0 1.1202,0.1165 1.5193,0.3495 0.3994,0.233 0.6804,0.5417 0.8414,0.9261 0.1607,0.3827 0.2403,0.9244 0.2403,1.6214 z m -2.1852,-1.1645 v -0.525 c 0,-0.3736 -0.0204,-0.612 -0.0609,-0.7211 -0.0408,-0.1091 -0.1239,-0.1627 -0.2498,-0.1627 -0.155,0 -0.2514,0.0462 -0.2882,0.1386 -0.0369,0.0924 -0.0556,0.3402 -0.0556,0.7452 v 0.525 z m 5.1208,-2.5512 -0.0388,0.6358 c 0.1958,-0.2588 0.4104,-0.4509 0.6451,-0.5785 0.2347,-0.1276 0.4918,-0.1905 0.7691,-0.1905 0.3401,0 0.6341,0.0907 0.8818,0.2735 0.2458,0.1832 0.4011,0.3941 0.4621,0.6325 0.0612,0.2384 0.0927,0.6431 0.0927,1.2146 v 3.03 c 0,0.6542 -0.0389,1.1182 -0.1165,1.3955 -0.0777,0.2755 -0.2367,0.4974 -0.4771,0.6618 -0.2404,0.1647 -0.5306,0.2461 -0.8708,0.2461 -0.2699,0 -0.5213,-0.0629 -0.7523,-0.1905 -0.231,-0.1276 -0.4419,-0.3161 -0.6341,-0.5675 v 1.6452 h -2.185 v -8.208 z m 0.6267,2.0909 c 0,-0.4456 -0.0167,-0.7138 -0.0498,-0.8079 -0.0315,-0.0944 -0.1222,-0.1406 -0.2719,-0.1406 -0.146,0 -0.2384,0.0536 -0.2809,0.1627 -0.0425,0.1072 -0.0629,0.3696 -0.0629,0.7858 v 2.98 c 0,0.4326 0.0221,0.7042 0.0646,0.8116 0.0445,0.1088 0.1389,0.1627 0.2849,0.1627 0.1423,0 0.229,-0.0499 0.2642,-0.15 0.0351,-0.0977 0.0518,-0.3401 0.0518,-0.7228 z m 8.2857,3.0447 c 0,0.6525 -0.085,1.1222 -0.2551,1.4068 -0.1684,0.2866 -0.4272,0.464 -0.771,0.536 -0.3456,0.0723 -0.8946,0.1092 -1.6489,0.1092 h -2.6382 v -8.7738 h 4.4702 v 1.5196 h -2.1852 v 1.4862 h 0.3532 c 0.7024,0 1.2367,0.0408 1.597,0.1239 0.3606,0.0833 0.6304,0.2662 0.8099,0.5511 0.1794,0.2829 0.2681,0.7282 0.2681,1.3345 z m -2.285,-0.2645 v -1.2682 c 0,-0.3697 -0.0371,-0.5933 -0.1108,-0.6727 -0.074,-0.0796 -0.2849,-0.1239 -0.6324,-0.1349 v 2.8837 c 0.2902,0 0.4861,-0.0369 0.5879,-0.1109 0.1034,-0.074 0.1553,-0.307 0.1553,-0.697 z m 5.2501,-4.8711 -0.0389,0.6358 c 0.1959,-0.2588 0.4105,-0.4509 0.6452,-0.5785 0.2347,-0.1276 0.4918,-0.1905 0.769,-0.1905 0.3402,0 0.6341,0.0907 0.8819,0.2735 0.2457,0.1832 0.4011,0.3941 0.462,0.6325 0.0613,0.2384 0.0927,0.6431 0.0927,1.2146 v 3.03 c 0,0.6542 -0.0388,1.1182 -0.1165,1.3955 -0.0777,0.2755 -0.2367,0.4974 -0.4771,0.6618 -0.2403,0.1647 -0.5306,0.2461 -0.8708,0.2461 -0.2698,0 -0.5212,-0.0629 -0.7523,-0.1905 -0.231,-0.1276 -0.4419,-0.3161 -0.6341,-0.5675 v 1.6452 h -2.1849 v -8.208 z m 0.6267,2.0909 c 0,-0.4456 -0.0167,-0.7138 -0.0499,-0.8079 -0.0315,-0.0944 -0.1222,-0.1406 -0.2718,-0.1406 -0.146,0 -0.2384,0.0536 -0.281,0.1627 -0.0425,0.1072 -0.0629,0.3696 -0.0629,0.7858 v 2.98 c 0,0.4326 0.0221,0.7042 0.0646,0.8116 0.0446,0.1088 0.1389,0.1627 0.2849,0.1627 0.1423,0 0.2291,-0.0499 0.2642,-0.15 0.0352,-0.0977 0.0519,-0.3401 0.0519,-0.7228 z m 7.8531,0.4325 v 1.7618 c 0,0.6471 -0.0335,1.1202 -0.0981,1.4235 -0.0646,0.3013 -0.2035,0.5823 -0.4158,0.8448 -0.2126,0.2624 -0.4864,0.4546 -0.8209,0.5805 -0.3348,0.1239 -0.7175,0.1868 -1.1501,0.1868 -0.4841,0 -0.8946,-0.0539 -1.2291,-0.159 -0.3364,-0.1075 -0.5972,-0.2682 -0.782,-0.4825 -0.1868,-0.2163 -0.3198,-0.4771 -0.3994,-0.7821 -0.0794,-0.305 -0.1182,-0.7636 -0.1182,-1.3736 v -1.8431 c 0,-0.6693 0.072,-1.1906 0.2162,-1.5676 0.144,-0.3753 0.4048,-0.6766 0.7801,-0.904 0.3753,-0.2273 0.8558,-0.3421 1.44,-0.3421 0.4901,0 0.9117,0.074 1.2646,0.22 0.3512,0.146 0.623,0.3364 0.8152,0.5712 0.1905,0.2349 0.3217,0.477 0.392,0.7265 0.0703,0.2497 0.1055,0.6287 0.1055,1.1389 z m -2.1852,-0.5417 c 0,-0.3679 -0.0204,-0.6009 -0.0593,-0.695 -0.0405,-0.0961 -0.1256,-0.1443 -0.2568,-0.1443 -0.1312,0 -0.2183,0.0482 -0.2625,0.1443 -0.0425,0.0941 -0.0649,0.3271 -0.0649,0.695 v 3.2446 c 0,0.3398 0.0224,0.5618 0.0649,0.6636 0.0442,0.1034 0.1293,0.1553 0.2568,0.1553 0.1313,0 0.2163,-0.0462 0.2588,-0.1406 0.0426,-0.0944 0.063,-0.2959 0.063,-0.6063 z m 5.0709,-1.98 v 2.7936 c 0.4583,0 0.6877,-0.2441 0.6877,-0.7305 v -1.2181 c 0,-0.4901 0.0813,-0.7727 0.244,-0.845 h 2.1076 c -0.1627,0.235 -0.2441,0.5826 -0.2441,1.0389 v 1.0021 c 0,0.3495 -0.1426,0.6398 -0.4272,0.8708 -0.1054,0.0867 -0.3254,0.2089 -0.6619,0.3679 -0.2162,0.1052 -0.46,0.1607 -0.7319,0.1681 0.1276,0.0221 0.3643,0.0814 0.7098,0.1794 0.7487,0.2367 1.1223,0.6543 1.1223,1.2496 v 1.2608 c 0,0.4623 0.0813,0.8116 0.244,1.0446 h -2.1075 c -0.1627,-0.22 -0.2441,-0.5009 -0.2441,-0.843 v -1.5177 c 0,-0.4862 -0.233,-0.7302 -0.6987,-0.7302 v 3.0909 h -2.1629 v -7.1822 z m 8.4651,3.714 h -2.8398 v 1.5585 c 0,0.3254 0.0241,0.536 0.0703,0.6304 0.0482,0.0944 0.1386,0.1406 0.2736,0.1406 0.1683,0 0.2812,-0.0629 0.3364,-0.1868 0.0576,-0.1259 0.0851,-0.3679 0.0851,-0.7265 v -0.9502 h 2.0744 v 0.5323 c 0,0.4457 -0.0278,0.7875 -0.0834,1.0262 -0.0572,0.2384 -0.1885,0.4935 -0.3937,0.7653 -0.2052,0.2716 -0.4677,0.4751 -0.7838,0.6118 -0.316,0.1349 -0.7118,0.2035 -1.1888,0.2035 -0.4621,0 -0.8706,-0.0666 -1.2254,-0.2016 -0.3532,-0.1332 -0.6288,-0.3163 -0.8266,-0.549 -0.1976,-0.233 -0.3325,-0.4899 -0.4085,-0.771 -0.0757,-0.2793 -0.1145,-0.6857 -0.1145,-1.2221 v -2.0982 c 0,-0.6284 0.085,-1.1239 0.2551,-1.4882 0.1701,-0.3622 0.4473,-0.6414 0.8337,-0.8336 0.3883,-0.1942 0.8319,-0.2903 1.3348,-0.2903 0.6137,0 1.1202,0.1165 1.5194,0.3495 0.3994,0.233 0.6803,0.5417 0.8413,0.9261 0.1607,0.3827 0.2404,0.9244 0.2404,1.6214 z m -2.1853,-1.1645 v -0.525 c 0,-0.3736 -0.0204,-0.612 -0.0609,-0.7211 -0.0408,-0.1091 -0.1239,-0.1627 -0.2497,-0.1627 -0.1551,0 -0.2515,0.0462 -0.2883,0.1386 -0.0369,0.0924 -0.0556,0.3402 -0.0556,0.7452 v 0.525 z m 5.1208,-2.5512 -0.0388,0.6358 c 0.1959,-0.2588 0.4104,-0.4509 0.6452,-0.5785 0.2347,-0.1276 0.4918,-0.1905 0.769,-0.1905 0.3402,0 0.6341,0.0907 0.8819,0.2735 0.2457,0.1832 0.4011,0.3941 0.462,0.6325 0.0612,0.2384 0.0927,0.6431 0.0927,1.2146 v 3.03 c 0,0.6542 -0.0388,1.1182 -0.1165,1.3955 -0.0777,0.2755 -0.2367,0.4974 -0.4771,0.6618 -0.2404,0.1647 -0.5306,0.2461 -0.8708,0.2461 -0.2698,0 -0.5213,-0.0629 -0.7523,-0.1905 -0.231,-0.1276 -0.4419,-0.3161 -0.6341,-0.5675 v 1.6452 h -2.185 v -8.208 z m 0.6268,2.0909 c 0,-0.4456 -0.0168,-0.7138 -0.0499,-0.8079 -0.0315,-0.0944 -0.1222,-0.1406 -0.2719,-0.1406 -0.1459,0 -0.2384,0.0536 -0.2809,0.1627 -0.0425,0.1072 -0.0629,0.3696 -0.0629,0.7858 v 2.98 c 0,0.4326 0.0221,0.7042 0.0646,0.8116 0.0445,0.1088 0.1389,0.1627 0.2849,0.1627 0.1423,0 0.229,-0.0499 0.2642,-0.15 0.0351,-0.0977 0.0519,-0.3401 0.0519,-0.7228 z m 7.4851,-3.6771 -0.623,5.8104 c -0.0981,0.917 -0.2033,1.5622 -0.3144,1.9318 -0.1128,0.3697 -0.3291,0.6341 -0.6488,0.7932 -0.3218,0.159 -0.8504,0.2384 -1.5843,0.2384 h -1.3312 v -1.1313 h 0.1369 c 0.3014,0 0.4882,-0.0241 0.5585,-0.074 0.07,-0.0482 0.1071,-0.1222 0.1071,-0.2237 0,-0.007 -0.0445,-0.2551 -0.1312,-0.7432 l -1.2036,-6.6016 h 1.9837 l 0.7171,5.4703 0.3422,-5.4703 z m 2.6158,1.5862 -0.0388,0.6358 c 0.1959,-0.2588 0.4105,-0.4509 0.6452,-0.5785 0.2347,-0.1276 0.4918,-0.1905 0.769,-0.1905 0.3402,0 0.6341,0.0907 0.8819,0.2735 0.2457,0.1832 0.4011,0.3941 0.462,0.6325 0.0612,0.2384 0.0927,0.6431 0.0927,1.2146 v 3.03 c 0,0.6542 -0.0388,1.1182 -0.1165,1.3955 -0.0777,0.2755 -0.2367,0.4974 -0.4771,0.6618 -0.2403,0.1647 -0.5306,0.2461 -0.8708,0.2461 -0.2698,0 -0.5213,-0.0629 -0.7523,-0.1905 -0.231,-0.1276 -0.4419,-0.3161 -0.6341,-0.5675 v 1.6452 h -2.1849 v -8.208 z m 0.6268,2.0909 c 0,-0.4456 -0.0167,-0.7138 -0.0499,-0.8079 -0.0315,-0.0944 -0.1222,-0.1406 -0.2718,-0.1406 -0.146,0 -0.2384,0.0536 -0.281,0.1627 -0.0425,0.1072 -0.0629,0.3696 -0.0629,0.7858 v 2.98 c 0,0.4326 0.0221,0.7042 0.0646,0.8116 0.0445,0.1088 0.1389,0.1627 0.2849,0.1627 0.1423,0 0.2291,-0.0499 0.2642,-0.15 0.0352,-0.0977 0.0519,-0.3401 0.0519,-0.7228 z m 4.858,0.693 h -2.052 v -0.4824 c 0,-0.5565 0.0649,-0.9853 0.1925,-1.2884 0.1275,-0.3013 0.3863,-0.5677 0.7727,-0.7988 0.3864,-0.231 0.8872,-0.3475 1.5066,-0.3475 0.7396,0 1.2977,0.1312 1.673,0.3937 0.3753,0.2608 0.6007,0.5826 0.6766,0.9632 0.0757,0.381 0.1146,1.1665 0.1146,2.3554 v 3.6085 h -2.1297 v -0.6415 c -0.1329,0.2588 -0.3067,0.451 -0.5176,0.5805 -0.2106,0.1293 -0.4621,0.1942 -0.756,0.1942 -0.3827,0 -0.7339,-0.1074 -1.0539,-0.3217 -0.3198,-0.2163 -0.4788,-0.686 -0.4788,-1.4125 v -0.5916 c 0,-0.5381 0.085,-0.904 0.2551,-1.0999 0.1701,-0.1959 0.5916,-0.4235 1.2646,-0.6823 0.7191,-0.2826 1.1038,-0.4714 1.1554,-0.5692 0.0498,-0.0981 0.0759,-0.2959 0.0759,-0.5972 0,-0.3753 -0.0278,-0.6194 -0.085,-0.7339 -0.0556,-0.1128 -0.15,-0.1701 -0.2812,-0.1701 -0.1497,0 -0.2421,0.0482 -0.2772,0.1443 -0.0369,0.0941 -0.0556,0.3438 -0.0556,0.7449 z m 0.699,0.9854 c -0.3532,0.2571 -0.5584,0.4714 -0.614,0.6451 -0.0572,0.1741 -0.085,0.4215 -0.085,0.747 0,0.3736 0.0241,0.612 0.074,0.7211 0.0482,0.1088 0.1463,0.1627 0.2922,0.1627 0.1387,0 0.2274,-0.0425 0.2699,-0.1276 0.0425,-0.085 0.0629,-0.307 0.0629,-0.6692 z m 6.2652,3.4183 v -5.6793 h -0.7767 v 3.6273 c 0,0.6599 -0.0757,1.1333 -0.2274,1.4161 -0.1513,0.2827 -0.39,0.4601 -0.7171,0.5304 -0.3255,0.0703 -0.8615,0.1055 -1.6047,0.1055 h -0.3569 v -1.1759 c 0.2792,-0.004 0.4697,-0.0388 0.5751,-0.1054 0.1052,-0.0663 0.1571,-0.303 0.1571,-0.7078 v -5.1985 h 5.1244 v 7.1876 z m 5.9561,-6.7108 0.466,2.9395 -0.466,3.0946 h -1.2866 l 0.466,-3.0946 -0.466,-2.9395 z m -1.9743,0 0.4549,2.9395 -0.4549,3.0946 h -1.2867 l 0.455,-3.0946 -0.455,-2.9395 z"
         style="fill:#050109;fill-rule:evenodd"
         id="path17" />
      <path
         d="m 287.0052,382.6597 101.866,1.0637 -7.8786,8.7076 29.7012,-13.5022 z"
         style="fill:#050109;fill-rule:evenodd"
         id="path19" />
    </g>
  </g>
</svg>
